<?xml version="1.0" encoding="UTF-8"?>
<svg width="785px" height="135px" viewBox="0 0 785 135" version="1.1" xmlns="http://www.w3.org/2000/svg" xmlns:xlink="http://www.w3.org/1999/xlink">
    <title>TopCourt-header-logo (1)</title>
    <defs>
        <linearGradient x1="35.5523692%" y1="14.7414368%" x2="64.4481276%" y2="85.2561382%" id="linearGradient-1">
            <stop stop-color="#F3E583" offset="0%"></stop>
            <stop stop-color="#B0822F" offset="100%"></stop>
        </linearGradient>
    </defs>
    <g id="Page-1" stroke="none" stroke-width="1" fill="none" fill-rule="evenodd">
        <g id="Artboard" transform="translate(-598.000000, -74.000000)">
            <g id="TopCourt-header-logo-(1)" transform="translate(598.000000, 75.000000)">
                <g id="Layer_3">
                    <rect id="Rectangle" stroke="#E2CC72" x="0.74894958" y="0.159120721" width="60.3230042" height="132.623167"></rect>
                    <rect id="Rectangle" fill="url(#linearGradient-1)" fill-rule="nonzero" x="5.92744748" y="5.34072883" width="50.2444223" height="122.538532"></rect>
                </g>
                <g id="Layer_1" transform="translate(105.000000, 29.000000)" fill="#FFFFFF" fill-rule="nonzero">
                    <g id="Group">
                        <path d="M24.2937825,72.4359091 L24.2937825,68.8928283 L26.3066288,68.6421212 C27.3873268,68.535202 28.193208,68.1259596 28.8059749,67.3885859 C29.4521654,66.6180303 29.7641194,65.6483838 29.7641194,64.4243434 L29.7641194,4.88141414 L15.3251039,4.88141414 C13.6093567,4.88141414 11.9530293,5.40863636 10.266992,6.49257576 C8.58466842,7.57651515 7.2922874,9.00333333 6.42327257,10.725101 L3.82736932,15.6360101 L0.726397617,15.6360101 L0.845237251,14.1981313 C0.986359316,12.5206061 1.16090503,10.6144949 1.37258813,8.48717172 C1.52485141,6.95712121 1.658546,5.54505051 1.76995815,4.25464646 L1.6882559,4.25464646 L1.69568338,2.73934343 L1.9667863,0.866414141 L65.3900135,0.866414141 L65.8765132,4.25464646 L65.6871126,4.25464646 C65.8022385,5.54873737 65.935933,6.95712121 66.0881963,8.48717172 C66.2998794,10.6366162 66.4410015,12.5574747 66.5152763,14.2497475 L66.5746961,15.6323232 L63.5294305,15.6323232 L60.9446684,10.7435354 C60.0496574,8.97383838 58.7907,7.58757576 57.086094,6.48888889 C55.4223392,5.41969697 53.7214469,4.87772727 52.0316959,4.87772727 L37.8006497,4.87772727 L37.8006497,64.4206566 C37.8006497,65.644697 38.1126037,66.6143434 38.7550805,67.384899 C39.3678474,68.1222727 40.1737286,68.5315152 41.2247166,68.6347475 L43.2672729,68.8891414 L43.2672729,72.4322222 L24.2937825,72.4322222 L24.2937825,72.4359091 Z" id="Path"></path>
                        <path d="M2.17475566,14.3050505 C2.31587772,12.634899 2.49042343,10.7361616 2.70210653,8.61621212 C2.91378963,6.49257576 3.08833534,4.59383838 3.22945741,2.92368687 L3.01777431,2.92368687 L3.12175899,2.19368687 L64.2276133,2.19368687 L64.331598,2.92368687 L64.2276133,2.92368687 C64.3687354,4.59383838 64.5432811,6.49257576 64.7549642,8.61621212 C64.9666473,10.7361616 65.1040556,12.634899 65.1746166,14.3050505 L64.331598,14.3050505 L62.1219235,10.1278283 C61.1377828,8.18116162 59.7042797,6.59580808 57.8102731,5.37545455 C55.9162664,4.15878788 53.9888361,3.55045455 52.0242684,3.55045455 L36.4599901,3.55045455 L36.4599901,64.4243434 C36.4599901,65.9543939 36.8796425,67.2263636 37.7226612,68.2328788 C38.5656798,69.2430808 39.6835151,69.8182323 41.0873083,69.9583333 L41.930327,70.0615657 L41.930327,71.1049495 L25.6270147,71.1049495 L25.6270147,70.0615657 L26.4700333,69.9583333 C27.8701128,69.8182323 28.9953756,69.2467677 29.8346805,68.2328788 C30.6776991,67.2263636 31.0973516,65.9543939 31.0973516,64.4243434 L31.0973516,3.55045455 L15.3213902,3.55045455 C13.3568225,3.55045455 11.4293922,4.15878788 9.53538549,5.37545455 C7.64137882,6.59580808 6.204162,8.18116162 5.22373502,10.1278283 L3.01777431,14.3050505 L2.17475566,14.3050505 Z" id="Path"></path>
                        <path d="M124.765266,72.9594444 C119.064677,72.9594444 113.910008,71.9566162 109.44238,69.9730808 C104.985894,67.9932323 101.15703,65.2870707 98.0634854,61.9283333 C94.9736549,58.5732828 92.6005759,54.6615152 91.0110958,50.3110101 C89.4216157,45.9752525 88.6157344,41.3814141 88.6157344,36.6511616 C88.6157344,31.9209091 89.4216157,27.3270707 91.0110958,22.9913131 C92.6042897,18.6371212 94.9773686,14.7290404 98.0634854,11.3739899 C101.15703,8.01893939 104.985894,5.30909091 109.44238,3.33292929 C113.910008,1.34939394 119.064677,0.342878788 124.765266,0.342878788 C130.465854,0.342878788 135.620523,1.34570707 140.088151,3.32924242 C144.540923,5.30909091 148.369788,8.01525253 151.467046,11.3739899 C154.553163,14.7327273 156.926242,18.6408081 158.519435,22.9913131 C160.108916,27.3307576 160.914797,31.924596 160.914797,36.6511616 C160.914797,41.3777273 160.108916,45.9715657 158.519435,50.3110101 C156.926242,54.665202 154.553163,58.5732828 151.467046,61.9283333 C148.369788,65.2870707 144.540923,67.9932323 140.088151,69.9693939 C135.620523,71.9529293 130.465854,72.9594444 124.765266,72.9594444 Z M124.765266,4.35787879 C120.375627,4.35787879 116.442778,5.23535354 113.07813,6.97186869 C109.687487,8.72313131 106.794485,11.1122222 104.473398,14.0764646 C102.130029,17.070202 100.306583,20.5506061 99.062481,24.4218182 C97.8146649,28.3077778 97.1796156,32.4186364 97.1796156,36.6511616 C97.1796156,40.8836869 97.8146649,44.9982323 99.062481,48.8805051 C100.306583,52.7517172 102.126315,56.2321212 104.473398,59.2258586 C106.794485,62.190101 109.691201,64.5791919 113.07813,66.3304545 C116.446491,68.0669697 120.375627,68.9444444 124.765266,68.9444444 C129.154905,68.9444444 133.087754,68.0669697 136.452401,66.3304545 C139.83933,64.5791919 142.732333,62.190101 145.057133,59.2258586 C147.400502,56.2321212 149.220234,52.7517172 150.46805,48.8805051 C151.715866,44.9908586 152.350916,40.8763131 152.350916,36.6511616 C152.350916,32.4260101 151.715866,28.3077778 150.46805,24.4218182 C149.223948,20.5506061 147.400502,17.070202 145.057133,14.0764646 C142.732333,11.1122222 139.83933,8.72313131 136.452401,6.97186869 C133.087754,5.2390404 129.154905,4.35787879 124.765266,4.35787879 Z" id="Shape"></path>
                        <path d="M89.9526803,36.6511616 C89.9526803,32.0573232 90.725138,27.655202 92.2663395,23.444798 C93.807541,19.2307071 96.0692077,15.5106566 99.0513398,12.269899 C102.029758,9.03651515 105.676649,6.45939394 109.9883,4.54222222 C114.29995,2.62873737 119.224368,1.67383838 124.765266,1.67383838 C130.30245,1.67383838 135.230581,2.63242424 139.542231,4.54222222 C143.853882,6.45939394 147.500773,9.03651515 150.479191,12.269899 C153.45761,15.5106566 155.719277,19.2343939 157.264192,23.444798 C158.805393,27.655202 159.577851,32.0573232 159.577851,36.6511616 C159.577851,41.245 158.805393,45.6471212 157.264192,49.8575253 C155.719277,54.0716162 153.461323,57.7916667 150.479191,61.0324242 C147.497059,64.2658081 143.853882,66.8429293 139.542231,68.760101 C135.230581,70.6735859 130.30245,71.6284848 124.765266,71.6284848 C119.224368,71.6284848 114.29995,70.669899 109.9883,68.760101 C105.676649,66.8429293 102.029758,64.2658081 99.0513398,61.0324242 C96.0692077,57.7916667 93.807541,54.0679293 92.2663395,49.8575253 C90.725138,45.6471212 89.9526803,41.245 89.9526803,36.6511616 Z M95.8426697,36.6511616 C95.8426697,41.0348485 96.4888602,45.2489394 97.7886687,49.2860606 C99.0847635,53.3231818 100.960201,56.9068182 103.414983,60.0406566 C105.869764,63.1744949 108.88532,65.6594444 112.46165,67.5065657 C116.03798,69.35 120.137947,70.2717172 124.765266,70.2717172 C129.392584,70.2717172 133.496265,69.35 137.068881,67.5065657 C140.645212,65.6594444 143.657054,63.1708081 146.115549,60.0406566 C148.57033,56.9068182 150.445768,53.3231818 151.741863,49.2860606 C153.037957,45.2489394 153.687862,41.0385354 153.687862,36.6511616 C153.687862,32.2637879 153.037957,28.0533838 151.741863,24.0162626 C150.442054,19.9791414 148.57033,16.3955051 146.115549,13.2616667 C143.660767,10.1278283 140.645212,7.64287879 137.068881,5.79575758 C133.492551,3.95232323 129.392584,3.03060606 124.765266,3.03060606 C120.137947,3.03060606 116.034266,3.95232323 112.46165,5.79575758 C108.88532,7.64287879 105.869764,10.1315152 103.414983,13.2616667 C100.960201,16.3955051 99.0847635,19.9791414 97.7886687,24.0162626 C96.4925739,28.0533838 95.8426697,32.2674747 95.8426697,36.6511616 Z" id="Shape"></path>
                        <path d="M185.124658,72.4359091 L185.124658,68.8928283 L187.137505,68.6421212 C188.218203,68.535202 189.024084,68.1259596 189.636851,67.3885859 C190.283041,66.6180303 190.594995,65.6483838 190.594995,64.4243434 L190.594995,8.8779798 C190.594995,7.65393939 190.283041,6.68429293 189.640565,5.91373737 C189.027798,5.17636364 188.221916,4.76712121 187.170928,4.66388889 L185.128372,4.40949495 L185.128372,0.866414141 L215.387914,0.866414141 C218.823122,0.866414141 222.016937,1.36782828 224.872802,2.35222222 C227.743522,3.33661616 230.261437,4.73393939 232.352272,6.5110101 C234.44682,8.29545455 236.118003,10.4596465 237.313827,12.9482828 C238.517078,15.4553535 239.126131,18.2315657 239.126131,21.1958081 C239.126131,24.1268687 238.416807,26.8735859 237.0093,29.3622222 C235.620362,31.8176768 233.670649,33.9634343 231.212154,35.7368182 C228.779655,37.4954545 225.864371,38.8780303 222.548002,39.8513636 C219.25763,40.824697 215.607025,41.3150505 211.703885,41.3150505 L198.631526,41.3150505 L198.631526,64.4206566 C198.631526,65.644697 198.94348,66.6143434 199.585956,67.384899 C200.198723,68.1222727 201.004605,68.5315152 202.055593,68.6347475 L204.098149,68.8891414 L204.098149,72.4322222 L185.124658,72.4322222 L185.124658,72.4359091 Z M211.703885,37.3074242 C214.485476,37.3074242 217.096234,36.8944949 219.469313,36.0760101 C221.816395,35.2685859 223.84781,34.140404 225.504138,32.7246465 C227.134469,31.3273232 228.437991,29.6129293 229.373853,27.6330808 C230.302288,25.6606061 230.773933,23.4964141 230.773933,21.1994949 C230.773933,18.7993434 230.380277,16.5724747 229.600392,14.5778788 C228.827934,12.5906566 227.747236,10.8541414 226.399149,9.41626263 C225.058489,7.99313131 223.439299,6.87232323 221.593571,6.08333333 C219.736702,5.2869697 217.649581,4.88510101 215.391628,4.88510101 L198.638953,4.88510101 L198.638953,37.3111111 L211.703885,37.3111111 L211.703885,37.3074242 Z" id="Shape"></path>
                        <path d="M202.764917,71.1086364 L186.461604,71.1086364 L186.461604,70.0652525 L187.304623,69.9620202 C188.704702,69.8219192 189.829965,69.2504545 190.66927,68.2365657 C191.512289,67.2300505 191.931941,65.9580808 191.931941,64.4280303 L191.931941,8.8779798 C191.931941,7.34792929 191.512289,6.0759596 190.66927,5.06944444 C189.826252,4.05924242 188.704702,3.48409091 187.304623,3.3439899 L186.461604,3.24075758 L186.461604,2.19737374 L215.3842,2.19737374 C218.678286,2.19737374 221.693842,2.66560606 224.430867,3.60944444 C227.164179,4.54590909 229.514976,5.85106061 231.475829,7.52489899 C233.436683,9.19505051 234.981599,11.1970202 236.103148,13.5271212 C237.224697,15.8609091 237.785471,18.419596 237.785471,21.2031818 C237.785471,23.9167172 237.135567,26.4237879 235.839472,28.7207071 C234.539664,31.0176263 232.738501,33.0011616 230.424841,34.6713131 C228.111182,36.3414646 225.359302,37.650303 222.169201,38.5867677 C218.979099,39.5306061 215.491899,39.9988384 211.703885,39.9988384 L197.29458,39.9988384 L197.29458,64.4317172 C197.29458,65.9617677 197.714232,67.2337374 198.557251,68.2402525 C199.40027,69.2504545 200.518105,69.8256061 201.921898,69.9657071 L202.764917,70.0689394 L202.764917,71.1086364 Z M211.703885,38.634697 C214.64888,38.634697 217.382192,38.1996465 219.907534,37.3295455 C222.432876,36.4631313 224.586844,35.2575253 226.376866,33.7274747 C228.166888,32.1974242 229.566968,30.350303 230.584532,28.1934848 C231.598383,26.0366667 232.110879,23.7028788 232.110879,21.1994949 C232.110879,18.6260606 231.691226,16.255404 230.848208,14.0985859 C230.005189,11.9417677 228.850216,10.079899 227.375862,8.50929293 C225.905222,6.94606061 224.148623,5.72570707 222.117208,4.85929293 C220.08208,3.98919192 217.838981,3.55414141 215.387914,3.55414141 L197.298293,3.55414141 L197.298293,38.6383838 L211.703885,38.6383838 L211.703885,38.634697 Z" id="Shape"></path>
                        <path d="M298.954459,72.9594444 C293.554683,72.9594444 288.489144,72.0487879 283.898963,70.2569697 C279.301355,68.4614646 275.294231,65.9212121 271.989003,62.7099495 C268.683776,59.5060606 266.054449,55.6348485 264.175298,51.2106061 C262.292432,46.7937374 261.334288,41.8975758 261.334288,36.6548485 C261.334288,31.4121212 262.288718,26.5159596 264.175298,22.095404 C266.058163,17.6748485 268.68749,13.8036364 271.992717,10.5960606 C275.294231,7.38848485 279.301355,4.84823232 283.902677,3.05272727 C288.492858,1.26090909 293.558397,0.350252525 298.958173,0.350252525 C301.476088,0.350252525 304.094273,0.512474747 306.745883,0.833232323 C309.390065,1.14661616 312.023105,1.61116162 314.57073,2.21212121 C317.118354,2.82045455 319.532285,3.51727273 321.749386,4.28782828 C324.044477,5.08419192 326.057323,6.00222222 327.735933,7.01611111 L328.37841,7.40323232 L328.37841,19.71 L325.270011,19.71 L324.902351,18.9763131 C324.672099,18.5228283 324.441847,17.9919192 324.211595,17.3835859 C324.022194,16.874798 323.82908,16.4323737 323.639679,16.0526263 C322.510703,13.5529293 320.757818,11.3260606 318.403308,9.37570707 C316.063653,7.44010101 313.638581,6.20131313 311.202369,5.68883838 C309.144958,5.27959596 307.057837,4.95146465 305.011567,4.71550505 C302.969011,4.47954545 300.933882,4.35787879 298.961887,4.35787879 C294.757935,4.35787879 290.836227,5.16161616 287.311889,6.74328283 C283.783837,8.32863636 280.69772,10.5739394 278.131527,13.4165152 C275.557906,16.2664646 273.522778,19.7063131 272.081847,23.6328283 C270.633489,27.570404 269.901882,31.9540909 269.901882,36.6474747 C269.901882,41.3408586 270.637203,45.7245455 272.081847,49.6621212 C273.522778,53.5886364 275.557906,57.0284848 278.131527,59.8784343 C280.694007,62.7210101 283.783837,64.9663131 287.311889,66.5516667 C290.836227,68.1370202 294.754221,68.9370707 298.961887,68.9370707 C302.036862,68.9370707 305.327235,68.6642424 308.74016,68.1185859 C311.926548,67.5360606 314.960672,66.2087879 317.727408,64.184697 C320.47186,62.1753535 322.451283,59.86 323.613683,57.2976263 C323.82908,56.8662626 324.018481,56.4238384 324.211595,55.9150505 C324.441847,55.3067172 324.672099,54.7758081 324.902351,54.3223232 L325.270011,53.5886364 L328.37841,53.5886364 L328.37841,65.924899 L327.698796,66.3083333 C326.027613,67.244798 324.033336,68.1370202 321.771669,68.9591919 C319.535998,69.770303 317.114641,70.4855556 314.574444,71.090202 C312.023105,71.6948485 309.390065,72.1593939 306.742169,72.4727778 C304.09056,72.7972222 301.472374,72.9594444 298.954459,72.9594444 Z" id="Path"></path>
                        <path d="M327.03775,54.9232828 L327.03775,65.1543434 C325.422274,66.0576263 323.513412,66.9129798 321.307452,67.7130303 C319.097777,68.5130808 316.746981,69.2062121 314.26249,69.799798 C311.774285,70.389697 309.215519,70.8431818 306.586192,71.1528788 C303.956865,71.4699495 301.412954,71.624798 298.961887,71.624798 C293.703233,71.624798 288.845663,70.754697 284.396604,69.0144949 C279.943831,67.2742929 276.122394,64.8557071 272.932293,61.7550505 C269.742192,58.6580808 267.235418,54.9712121 265.411972,50.6870707 C263.588527,46.410303 262.678661,41.7242929 262.678661,36.6437879 C262.678661,31.5632828 263.588527,26.8809596 265.411972,22.6005051 C267.235418,18.3163636 269.742192,14.6294949 272.932293,11.5325253 C276.122394,8.43186869 279.943831,6.01328283 284.396604,4.27308081 C288.849377,2.53287879 293.703233,1.66277778 298.961887,1.66277778 C301.416668,1.66277778 303.956865,1.81762626 306.586192,2.13469697 C309.215519,2.44439394 311.774285,2.89787879 314.26249,3.48777778 C316.750694,4.08136364 319.101491,4.75974747 321.307452,5.52661616 C323.513412,6.29348485 325.425988,7.15989899 327.03775,8.13691919 L327.03775,18.3679798 L326.090747,18.3679798 C325.879064,17.9513636 325.671094,17.464697 325.459411,16.9079798 C325.247728,16.3512626 325.039759,15.864596 324.828076,15.4479798 C323.635966,12.8008081 321.779096,10.4375253 319.253754,8.34707071 C316.728412,6.25661616 314.136222,4.93671717 311.469758,4.38 C309.367782,3.96338384 307.262092,3.63156566 305.160116,3.38823232 C303.05814,3.14489899 300.985874,3.01954545 298.954459,3.01954545 C294.538824,3.01954545 290.468567,3.85646465 286.754828,5.52661616 C283.037376,7.19676768 279.828706,9.53055556 277.132531,12.5206061 C274.432643,15.5143434 272.330667,19.0611111 270.82289,23.1719697 C269.315112,27.2791414 268.561223,31.7697475 268.561223,36.640101 C268.561223,41.5104545 269.315112,46.0010606 270.82289,50.1082323 C272.330667,54.215404 274.432643,57.7658586 277.132531,60.759596 C279.832419,63.7533333 283.037376,66.0834343 286.754828,67.7535859 C290.468567,69.4237374 294.538824,70.2606566 298.954459,70.2606566 C302.111137,70.2606566 305.438647,69.9841414 308.944416,69.4237374 C312.379624,68.7969697 315.569726,67.4033333 318.51472,65.2465152 C321.459715,63.089697 323.561691,60.6158081 324.824362,57.8322222 C325.036045,57.4156061 325.244014,56.9289394 325.455698,56.3722222 C325.667381,55.8155051 325.87535,55.3288384 326.087033,54.9122222 L327.03775,54.9122222 L327.03775,54.9232828 Z" id="Path"></path>
                        <path d="M390.94005,72.9594444 C385.239461,72.9594444 380.081078,71.9566162 375.620878,69.9730808 C371.160678,67.9895455 367.335527,65.2870707 364.241983,61.9283333 C361.152153,58.569596 358.77536,54.6578283 357.189594,50.3110101 C355.5964,45.9715657 354.790518,41.3777273 354.790518,36.6511616 C354.790518,31.924596 355.5964,27.3307576 357.189594,22.9913131 C358.779074,18.6408081 361.152153,14.7327273 364.241983,11.3739899 C367.335527,8.01893939 371.160678,5.30909091 375.620878,3.32924242 C380.081078,1.34939394 385.239461,0.342878788 390.94005,0.342878788 C396.640638,0.342878788 401.799021,1.34570707 406.259221,3.32924242 C410.719421,5.31277778 414.544572,8.01525253 417.638116,11.3739899 C420.727947,14.7327273 423.104739,18.6444949 424.690506,22.9913131 C426.2837,27.3307576 427.089581,31.924596 427.089581,36.6511616 C427.089581,41.3777273 426.2837,45.9715657 424.690506,50.3110101 C423.101026,54.6615152 420.727947,58.569596 417.638116,61.9283333 C414.544572,65.2833838 410.719421,67.9932323 406.259221,69.9730808 C401.799021,71.9529293 396.640638,72.9594444 390.94005,72.9594444 Z M390.94005,4.35787879 C386.550411,4.35787879 382.617562,5.23535354 379.252914,6.97186869 C375.865985,8.72313131 372.972982,11.1122222 370.648182,14.0764646 C368.301099,17.070202 366.485081,20.5506061 365.240979,24.4218182 C363.989449,28.3114646 363.358113,32.4223232 363.358113,36.6511616 C363.358113,40.88 363.989449,44.9945455 365.240979,48.8805051 C366.485081,52.7517172 368.301099,56.2284343 370.648182,59.2258586 C372.972982,62.190101 375.865985,64.5791919 379.252914,66.3304545 C382.617562,68.0669697 386.554124,68.9444444 390.94005,68.9444444 C395.325975,68.9444444 399.262538,68.0669697 402.627185,66.3304545 C406.014114,64.5791919 408.907117,62.190101 411.231917,59.2258586 C413.579,56.2321212 415.395018,52.7517172 416.639121,48.8805051 C417.89065,44.9908586 418.521986,40.88 418.521986,36.6511616 C418.521986,32.4223232 417.89065,28.3077778 416.639121,24.4218182 C415.395018,20.5506061 413.579,17.0738889 411.231917,14.0764646 C408.907117,11.1122222 406.014114,8.72313131 402.627185,6.97186869 C399.262538,5.2390404 395.329689,4.35787879 390.94005,4.35787879 Z" id="Shape"></path>
                        <path d="M356.127464,36.6511616 C356.127464,32.0573232 356.899922,27.655202 358.441123,23.444798 C359.982325,19.2307071 362.243992,15.5106566 365.226124,12.269899 C368.204542,9.03651515 371.84772,6.45939394 376.163084,4.54222222 C380.471021,2.62873737 385.399152,1.67383838 390.94005,1.67383838 C396.480948,1.67383838 401.405365,2.63242424 405.717015,4.54222222 C410.03238,6.45939394 413.679271,9.03651515 416.653975,12.269899 C419.636108,15.5106566 421.897774,19.2343939 423.438976,23.444798 C424.980177,27.655202 425.752635,32.0573232 425.752635,36.6511616 C425.752635,41.245 424.980177,45.6471212 423.438976,49.8575253 C421.897774,54.0716162 419.636108,57.7916667 416.653975,61.0324242 C413.675557,64.2658081 410.03238,66.8429293 405.717015,68.760101 C401.409079,70.6735859 396.480948,71.6284848 390.94005,71.6284848 C385.399152,71.6284848 380.474734,70.669899 376.163084,68.760101 C371.84772,66.8429293 368.200828,64.2658081 365.226124,61.0324242 C362.243992,57.7916667 359.982325,54.0679293 358.441123,49.8575253 C356.899922,45.6471212 356.127464,41.245 356.127464,36.6511616 Z M362.017454,36.6511616 C362.017454,41.0348485 362.667358,45.2489394 363.963453,49.2860606 C365.259547,53.3231818 367.134985,56.9068182 369.589767,60.0406566 C372.044548,63.1744949 375.060104,65.6594444 378.636434,67.5065657 C382.212764,69.35 386.312731,70.2717172 390.94005,70.2717172 C395.567368,70.2717172 399.671049,69.35 403.243666,67.5065657 C406.819996,65.6594444 409.831838,63.1708081 412.290333,60.0406566 C414.748828,56.9105051 416.620552,53.3231818 417.916647,49.2860606 C419.216455,45.2489394 419.862646,41.0385354 419.862646,36.6511616 C419.862646,32.2637879 419.212741,28.0533838 417.916647,24.0162626 C416.620552,19.9791414 414.745114,16.3955051 412.290333,13.2616667 C409.835551,10.1278283 406.819996,7.64287879 403.243666,5.79575758 C399.667335,3.95232323 395.567368,3.03060606 390.94005,3.03060606 C386.312731,3.03060606 382.20905,3.95232323 378.636434,5.79575758 C375.060104,7.64287879 372.048262,10.1315152 369.589767,13.2616667 C367.131272,16.3918182 365.259547,19.9791414 363.963453,24.0162626 C362.667358,28.0533838 362.017454,32.2674747 362.017454,36.6511616 Z" id="Shape"></path>
                        <path d="M482.92564,72.9594444 C478.313177,72.9594444 474.254061,72.3732323 470.870845,71.2155556 C467.450492,70.0505051 464.583485,68.4061616 462.347815,66.3378283 C460.104717,64.2584343 458.407538,61.7144949 457.319413,58.7760606 C456.25357,55.8929293 455.711364,52.7332828 455.711364,49.3892929 L455.711364,8.8779798 C455.711364,7.65393939 455.39941,6.68429293 454.756933,5.91373737 C454.144166,5.17636364 453.334571,4.76712121 452.287297,4.66388889 L450.241027,4.40949495 L450.241027,0.866414141 L469.218231,0.866414141 L469.218231,4.40949495 L467.205385,4.66020202 C466.124687,4.76712121 465.315092,5.17636364 464.702325,5.91373737 C464.059848,6.68429293 463.747894,7.65393939 463.747894,8.8779798 L463.747894,50.4326768 C463.747894,53.0614141 464.130409,55.5168687 464.884298,57.7326768 C465.623332,59.8894949 466.804301,61.769798 468.393781,63.3182828 C470.00183,64.8815152 472.070382,66.1350505 474.547446,67.0420202 C477.046792,67.9563636 480.110626,68.4209091 483.653533,68.4209091 C487.430405,68.4209091 490.691067,68.0042929 493.350104,67.1747475 C495.957149,66.3673232 498.1334,65.2280808 499.815723,63.7865152 C501.464623,62.3670707 502.701298,60.6416162 503.496038,58.6617677 C504.305633,56.630303 504.714144,54.3886869 504.714144,51.9959091 L504.714144,9.70752525 C504.714144,8.22540404 504.316774,7.0640404 503.488611,6.16444444 C502.660447,5.26484848 501.642882,4.77080808 500.361643,4.66020202 L498.192819,4.42424242 L498.192819,0.862727273 L515.172032,0.862727273 L515.172032,4.40580808 L513.159186,4.65651515 C511.922511,4.76712121 510.975507,5.25010101 510.225332,6.12757576 C509.449161,7.03454545 509.07036,8.20328283 509.07036,9.70752525 L509.07036,52.5157576 C509.07036,55.4689394 508.535581,58.2230303 507.492021,60.7042929 C506.433605,63.2187374 504.806988,65.419798 502.664161,67.2521717 C500.528761,69.069798 497.780594,70.4929293 494.497649,71.484697 C491.274124,72.465404 487.374699,72.9594444 482.92564,72.9594444 Z" id="Path"></path>
                        <path d="M513.846227,3.24075758 L513.003209,3.3439899 C511.462007,3.48409091 510.199336,4.12560606 509.215195,5.27590909 C508.231055,6.42252525 507.744555,7.9009596 507.744555,9.71121212 L507.744555,52.5194444 C507.744555,55.3030303 507.254341,57.8617172 506.273914,60.1955051 C505.289774,62.5256061 503.800565,64.5460101 501.806287,66.2530303 C499.804582,67.9563636 497.245816,69.2762626 494.126276,70.220101 C491.006735,71.1565657 487.274428,71.6284848 482.92564,71.6284848 C478.439444,71.6284848 474.562301,71.0717677 471.305352,69.9583333 C468.040976,68.844899 465.359657,67.3111616 463.257681,65.3644949 C461.155705,63.4178283 459.595934,61.0656061 458.574656,58.3188889 C457.560806,55.5684848 457.052024,52.5894949 457.052024,49.3892929 L457.052024,8.8779798 C457.052024,7.34792929 456.632371,6.0759596 455.789352,5.06944444 C454.946334,4.05924242 453.828498,3.48409091 452.424705,3.3439899 L451.581687,3.24075758 L451.581687,2.19737374 L467.884999,2.19737374 L467.884999,3.24075758 L467.04198,3.3439899 C465.638187,3.48409091 464.516638,4.05555556 463.677333,5.06944444 C462.834314,6.0759596 462.414662,7.34792929 462.414662,8.8779798 L462.414662,50.4326768 C462.414662,53.2162626 462.815746,55.7933838 463.621627,58.1603535 C464.431222,60.5273232 465.708748,62.5624747 467.461633,64.2658081 C469.214517,65.9728283 471.420478,67.3111616 474.086942,68.2881818 C476.753407,69.265202 479.939794,69.7481818 483.657247,69.7481818 C487.586382,69.7481818 490.951029,69.3131313 493.754902,68.4430303 C496.558774,67.5766162 498.872434,66.3562626 500.695879,64.7930303 C502.519325,63.2224242 503.867412,61.3421212 504.747568,59.1558081 C505.620296,56.9584343 506.062231,54.5767172 506.062231,52.0032828 L506.062231,9.71489899 C506.062231,7.90464646 505.53488,6.42252525 504.483892,5.27959596 C503.432904,4.12929293 502.099672,3.48777778 500.48791,3.34767677 L499.540906,3.24444444 L499.540906,2.20106061 L513.846227,2.20106061 L513.846227,3.24075758 L513.846227,3.24075758 Z" id="Path"></path>
                        <path d="M595.310797,72.4359091 C593.817874,72.4359091 592.53292,72.3179293 591.500501,72.0893434 C590.375238,71.8423232 589.242548,71.315101 588.024441,70.4744949 C586.88061,69.6781313 585.614225,68.5499495 584.139871,67.0125253 C582.724937,65.5414646 580.89035,63.5063131 578.628683,60.9107576 C573.934517,55.5537374 559.677475,39.3388889 559.677475,39.3388889 L549.739511,39.3388889 L549.739511,64.4280303 C549.739511,65.6520707 550.051465,66.6217172 550.693941,67.3922727 C551.306708,68.1296465 552.116303,68.5388889 553.163578,68.6421212 L555.209848,68.8965152 L555.209848,72.439596 L536.232643,72.439596 L536.232643,68.8965152 L538.24549,68.6458081 C539.326188,68.5388889 540.135783,68.1296465 540.74855,67.3922727 C541.391026,66.6217172 541.70298,65.6520707 541.70298,64.4280303 L541.70298,8.8779798 C541.70298,7.65393939 541.391026,6.68429293 540.74855,5.91373737 C540.135783,5.17636364 539.326188,4.76712121 538.278913,4.66388889 L536.232643,4.40949495 L536.232643,0.866414141 L565.021545,0.866414141 C568.167081,0.866414141 571.138072,1.3309596 573.863956,2.24161616 C576.612123,3.16333333 579.007484,4.47585859 580.979479,6.1460101 C582.970043,7.81984848 584.55581,9.86606061 585.6885,12.2256566 C586.82119,14.5815657 587.39682,17.1808081 587.39682,19.9459596 C587.39682,22.4198485 586.876896,24.7831313 585.851904,26.9768182 C584.830626,29.1557576 583.378555,31.0876768 581.53654,32.7320202 C579.713095,34.3542424 577.50342,35.7331313 574.966937,36.8244444 C573.143491,37.6134343 571.171496,38.2180808 569.080661,38.6273232 C570.495595,40.2421717 572.456449,42.4764141 574.97065,45.3337374 C578.613828,49.4740909 582.962616,54.4329293 588.0133,60.2102525 C589.911021,62.3707576 591.381661,64.0593434 592.436363,65.279697 C593.427931,66.43 594.24124,67.2742929 594.85772,67.7978283 C595.563331,68.3877273 595.945846,68.5462626 596.075827,68.5868182 C596.294937,68.6568687 596.707162,68.7342929 597.412773,68.7342929 L598.749718,68.7342929 L598.749718,72.4359091 L595.310797,72.4359091 Z M561.760882,35.3238889 C564.319648,35.3238889 566.696441,34.9330808 568.816986,34.1551515 C570.922675,33.384596 572.760976,32.3080303 574.283609,30.9660101 C575.783959,29.6313636 576.98721,28.0017677 577.84137,26.1288384 C578.706671,24.2632828 579.144893,22.1838889 579.144893,19.9459596 C579.144893,17.7485859 578.78466,15.695 578.075336,13.8405051 C577.369726,11.9860101 576.378157,10.3785354 575.137769,9.05126263 C573.912235,7.73873737 572.419312,6.6990404 570.703565,5.97272727 C568.987818,5.25010101 567.075242,4.88141414 565.025259,4.88141414 L549.746938,4.88141414 L549.746938,35.3238889 L561.760882,35.3238889 Z" id="Shape"></path>
                        <path d="M537.573303,2.19368687 L565.025259,2.19368687 C568.040814,2.19368687 570.844687,2.62873737 573.44059,3.49883838 C576.03278,4.36893939 578.261023,5.58560606 580.117892,7.15621212 C581.978475,8.71944444 583.434261,10.5997475 584.485249,12.7934343 C585.536237,14.9834343 586.063587,17.3688384 586.063587,19.9422727 C586.063587,22.2391919 585.588229,24.3960101 584.644939,26.4164141 C583.694222,28.4368182 582.364704,30.210202 580.648957,31.7402525 C578.929496,33.270303 576.860943,34.5607071 574.439586,35.6040909 C572.025656,36.6474747 569.37776,37.3442929 566.499613,37.6908586 C567.829131,39.2209091 570.32105,42.059798 573.967941,46.2038384 C577.611119,50.3441919 581.959906,55.3030303 587.010591,61.0803535 C588.904597,63.2371717 590.375238,64.9257576 591.426226,66.1424242 C592.477214,67.3627778 593.338801,68.2476263 593.999847,68.8080303 C594.66832,69.3647475 595.229094,69.7113131 595.68217,69.8514141 C596.13896,69.9915152 596.718303,70.0615657 597.4202,70.0615657 L597.4202,71.1049495 L595.318224,71.1049495 C593.914431,71.1049495 592.740889,71.0017172 591.7976,70.7915657 C590.846883,70.5814141 589.851601,70.1094949 588.796899,69.3831818 C587.745911,68.6494949 586.520377,67.5544949 585.116584,66.0908081 C583.712791,64.6271212 581.893059,62.610404 579.646247,60.0332828 C574.948368,54.6725758 570.900393,50.060303 567.498608,46.2001515 C564.100538,42.3326263 561.697749,39.6043434 560.297669,38.0005556 L548.413706,38.0005556 L548.413706,64.4169697 C548.413706,65.9470202 548.833358,67.2189899 549.676377,68.2255051 C550.519396,69.2357071 551.637231,69.8108586 553.041024,69.9509596 L553.884043,70.0541919 L553.884043,71.0975758 L537.580731,71.0975758 L537.580731,70.0541919 L538.423749,69.9509596 C539.827542,69.8108586 540.949091,69.2393939 541.788396,68.2255051 C542.631415,67.2189899 543.051067,65.9470202 543.051067,64.4169697 L543.051067,8.8779798 C543.051067,7.34792929 542.631415,6.0759596 541.788396,5.06944444 C540.945378,4.05924242 539.827542,3.48409091 538.423749,3.3439899 L537.580731,3.24075758 L537.580731,2.19368687 L537.573303,2.19368687 Z M561.760882,36.6511616 C564.494194,36.6511616 567.000967,36.2345455 569.281203,35.3976263 C571.557725,34.5607071 573.522292,33.4140909 575.171192,31.950404 C576.816378,30.490404 578.116187,28.7317677 579.059477,26.6744949 C580.010194,24.6209091 580.481838,22.3792929 580.481838,19.9422727 C580.481838,17.575303 580.09561,15.385303 579.323152,13.364899 C578.550694,11.3444949 577.484851,9.60429293 576.114482,8.14429293 C574.75154,6.68429293 573.117495,5.55242424 571.227202,4.74868687 C569.333195,3.94863636 567.268357,3.55045455 565.021545,3.55045455 L548.402565,3.55045455 L548.402565,36.6511616 L561.760882,36.6511616 Z" id="Shape"></path>
                        <path d="M637.580569,72.4359091 L637.580569,68.8928283 L639.593415,68.6421212 C640.674113,68.535202 641.483708,68.1259596 642.096475,67.3885859 C642.738952,66.6180303 643.050906,65.6483838 643.050906,64.4243434 L643.050906,4.88141414 L628.61189,4.88141414 C626.918425,4.88141414 625.217533,5.41969697 623.553778,6.49257576 C621.852886,7.59126263 620.593929,8.97752525 619.713773,10.725101 L617.117869,15.6360101 L614.013184,15.6360101 L614.135737,14.1944444 C614.276859,12.5206061 614.451405,10.6144949 614.663088,8.48717172 C614.815351,6.95712121 614.945332,5.54505051 615.060458,4.25464646 L614.978756,4.25464646 L614.986183,2.73934343 L615.253573,0.866414141 L678.680514,0.866414141 L679.167013,4.25464646 L678.977613,4.25464646 C679.092738,5.54873737 679.222719,6.95712121 679.374983,8.48717172 C679.590379,10.6366162 679.731502,12.5574747 679.798349,14.2497475 L679.857769,15.6323232 L676.816217,15.6323232 L674.235168,10.7435354 C673.340157,8.97383838 672.0812,7.58757576 670.376594,6.48888889 C668.716553,5.41969697 667.015661,4.87772727 665.322196,4.87772727 L651.094863,4.87772727 L651.094863,64.4206566 C651.094863,65.644697 651.406818,66.6143434 652.049294,67.384899 C652.662061,68.1222727 653.471656,68.5315152 654.51893,68.6347475 L656.5652,68.8891414 L656.5652,72.4322222 L637.580569,72.4322222 L637.580569,72.4359091 Z" id="Path"></path>
                        <path d="M615.465256,14.3050505 C615.606378,12.634899 615.780923,10.7361616 615.992607,8.61621212 C616.20429,6.49257576 616.378835,4.59383838 616.519957,2.92368687 L616.308274,2.92368687 L616.412259,2.19368687 L677.518113,2.19368687 L677.622098,2.92368687 L677.518113,2.92368687 C677.659235,4.59383838 677.833781,6.49257576 678.045464,8.61621212 C678.257147,10.7361616 678.398269,12.634899 678.465117,14.3050505 L677.622098,14.3050505 L675.412424,10.1278283 C674.428283,8.18116162 672.99478,6.59580808 671.100773,5.37545455 C669.206766,4.15878788 667.279336,3.55045455 665.314768,3.55045455 L649.75049,3.55045455 L649.75049,64.4243434 C649.75049,65.9543939 650.170143,67.2263636 651.013161,68.2328788 C651.85618,69.2430808 652.974015,69.8182323 654.377808,69.9583333 L655.220827,70.0615657 L655.220827,71.1049495 L638.917515,71.1049495 L638.917515,70.0615657 L639.760533,69.9583333 C641.164327,69.8182323 642.285876,69.2467677 643.125181,68.2328788 C643.968199,67.2263636 644.387852,65.9543939 644.387852,64.4243434 L644.387852,3.55045455 L628.61189,3.55045455 C626.651036,3.55045455 624.719892,4.15878788 622.825886,5.37545455 C620.931879,6.59580808 619.498376,8.18116162 618.514235,10.1278283 L616.304561,14.3050505 L615.465256,14.3050505 L615.465256,14.3050505 Z" id="Path"></path>
                    </g>
                </g>
            </g>
        </g>
    </g>
</svg>